PathFileType	4	(X/Y/Z)	C:\Users\Basilio\Documents\Thesis Gigler\squatting_fais\c3dfiles\054\SJ_pre4\markers_experimental.trc
DataRate	CameraRate	NumFrames	NumMarkers	Units	OrigDataRate	OrigDataStartFrame	OrigNumFrames
200.000000	200.000000	4	61	mm	200.000000	1384	1582
Frame#	Time	FHD			LBHD			RBHD			C7			T10			CLAV			LSHO			LUUPA			LMUPA			LDUPA			LLEP			LMEP			LRAD			LUL			LRFIN			RSHO			RUPA1			RMUPA			RDUPA			RLEP			RMEP			RRAD			RUL			RUFIN			LASI			RASI			USACR			LSACR			RSACR			LTHI1			LTHI2			LTHI3			LTHI4			LLFC			LMFC			LTIB1			LTIB2			LTIB3			LTIB4			LLMAL			LMMAL			LHEE			LMT1			LMT2			LMT5			RTHI			RTHI2			RTHI3			RTHI4			RLFC			RMFC			RTIB1			RTIB2			RTIB3			RTIB4			RLMAL			RMMAL			RHEE			RMT1			RMT2			RMT5			
		X1	Y1	Z1	X2	Y2	Z2	X3	Y3	Z3	X4	Y4	Z4	X5	Y5	Z5	X6	Y6	Z6	X7	Y7	Z7	X8	Y8	Z8	X9	Y9	Z9	X10	Y10	Z10	X11	Y11	Z11	X12	Y12	Z12	X13	Y13	Z13	X14	Y14	Z14	X15	Y15	Z15	X16	Y16	Z16	X17	Y17	Z17	X18	Y18	Z18	X19	Y19	Z19	X20	Y20	Z20	X21	Y21	Z21	X22	Y22	Z22	X23	Y23	Z23	X24	Y24	Z24	X25	Y25	Z25	X26	Y26	Z26	X27	Y27	Z27	X28	Y28	Z28	X29	Y29	Z29	X30	Y30	Z30	X31	Y31	Z31	X32	Y32	Z32	X33	Y33	Z33	X34	Y34	Z34	X35	Y35	Z35	X36	Y36	Z36	X37	Y37	Z37	X38	Y38	Z38	X39	Y39	Z39	X40	Y40	Z40	X41	Y41	Z41	X42	Y42	Z42	X43	Y43	Z43	X44	Y44	Z44	X45	Y45	Z45	X46	Y46	Z46	X47	Y47	Z47	X48	Y48	Z48	X49	Y49	Z49	X50	Y50	Z50	X51	Y51	Z51	X52	Y52	Z52	X53	Y53	Z53	X54	Y54	Z54	X55	Y55	Z55	X56	Y56	Z56	X57	Y57	Z57	X58	Y58	Z58	X59	Y59	Z59	X60	Y60	Z60	X61	Y61	Z61	

1385	6.92	35.61135864257813	1612.690673828125	-828.6929321289065	-112.4083328247071	1670.927734375	-925.3343505859377	-145.609375	1688.7568359375	-789.872497558594	-265.1684265136719	1534.814697265625	-855.0164184570315	-369.8779296875001	1206.477783203125	-883.1104736328127	-142.5042877197266	1435.962280273438	-856.8504638671877	-186.3284149169922	1520.671875	-1013.96826171875	-291.6067810058594	1419.743286132813	-1197.895263671875	-259.2652893066407	1379.389526367188	-1206.077880859375	-306.0373535156251	1369.477783203125	-1244.494750976563	-307.8529663085938	1306.344360351563	-1269.779541015625	-385.1209411621095	1295.076171875	-1225.507080078125	-298.9226074218751	1094.060546875	-1112.876342773438	-257.1426391601563	1054.573120117188	-1164.062133789063	-246.8059082031251	1093.192993164063	-1070.504516601563	-190.1746826171875	1502.091918945313	-693.4230346679689	-324.4463500976563	1378.110595703125	-535.8469238281251	-304.9863586425782	1333.314819335938	-529.9772949218751	-359.2393493652344	1325.853637695313	-503.7159118652345	-376.5903625488282	1278.362915039063	-490.6213684082032	-437.6094970703126	1282.083374023438	-552.2362670898439	-369.9006347656251	1063.236938476563	-664.0646362304689	-333.5135192871094	1028.783081054688	-601.0626220703126	-303.2192993164063	1070.814086914063	-681.7763671875001	-202.504867553711	1004.202697753906	-997.156433105469	-216.3074645996094	1004.819885253906	-739.7304687500001	-386.5357971191407	1112.5771484375	-881.7822875976565	-393.6559143066407	1081.635986328125	-910.4602050781252	-396.4375305175782	1080.681640625	-853.666442871094	-311.1969604492188	797.7290039062502	-1116.784790039063	-275.3740539550782	721.8403930664064	-1134.865478515625	-228.3845214843751	727.4152221679689	-1132.105346679688	-300.7960510253907	666.0216064453126	-1125.388671875	-286.7182006835938	510.5575256347657	-1134.810424804688	-229.8267211914063	482.2129516601564	-1014.29248046875	-226.321517944336	348.4648437500001	-1135.727783203125	-287.0240478515626	309.5007934570313	-1188.072509765625	-241.6228485107422	306.0590209960938	-1176.295532226563	-235.9771118164063	223.4151763916016	-1159.796752929688	-298.0447082519532	90.41167449951173	-1214.183349609375	-240.3080444335938	97.44046020507815	-1135.036254882813	-345.8732299804688	53.05184555053712	-1142.53662109375	-131.5174255371094	54.08519744873048	-1202.4619140625	-142.0594635009766	59.26226043701173	-1251.1796875	-207.4538574218751	39.1832504272461	-1283.463256835938	-358.5010681152344	727.8930053710939	-669.0354614257814	-329.1400451660157	669.3793334960939	-656.0097656250001	-296.3194885253907	665.8005371093751	-654.4929199218751	-361.9362792968751	594.2249755859376	-674.5983276367189	-377.5646667480469	501.344451904297	-673.4465332031251	-294.6507873535157	484.3424377441407	-785.8920898437502	-322.7070007324219	400.1573486328126	-646.4909667968751	-397.1721496582032	325.9371032714844	-627.5919799804689	-351.0432434082032	321.8637695312501	-619.3347778320314	-326.6892089843751	270.7366027832032	-628.5479736328126	-377.7591552734376	88.67709350585939	-599.3888549804689	-311.6948547363282	101.406478881836	-667.9196777343751	-410.7517089843751	47.30816650390626	-674.1846313476564	-198.6363067626954	55.00867843627931	-598.2666625976564	-214.8951263427735	58.2377281188965	-552.9870605468751	-276.7675476074219	34.92521667480469	-525.2700805664064	
1386	6.925	35.0390739440918	1612.165283203125	-826.7454833984377	-112.9274597167969	1670.548461914063	-922.6414794921877	-145.5041961669922	1688.401000976563	-787.1123046875002	-265.4611206054688	1534.594848632813	-851.7772216796877	-370.6825256347657	1206.517333984375	-880.979187011719	-142.8997039794922	1435.722778320313	-854.317321777344	-187.6507110595703	1520.775024414063	-1011.024475097656	-293.6058044433594	1420.188842773438	-1194.898193359375	-261.5050964355469	1379.755004882813	-1203.22802734375	-308.3601379394532	1370.097778320313	-1241.559204101563	-310.3013916015626	1306.95947265625	-1266.953247070313	-387.0232543945314	1295.482788085938	-1222.308227539063	-300.4931945800782	1094.024047851563	-1110.80810546875	-258.9465942382813	1054.831909179688	-1162.103393554688	-248.537094116211	1093.1201171875	-1068.563110351563	-190.3749389648438	1501.173706054688	-690.6569824218751	-323.6753845214844	1377.13134765625	-532.7390747070314	-304.2201843261719	1332.024536132813	-527.2742309570314	-358.4177246093751	1324.592407226563	-500.689422607422	-375.8258056640626	1277.02734375	-487.7598876953126	-437.049285888672	1280.943481445313	-548.8909301757814	-370.0011901855469	1062.660400390625	-662.1637573242189	-333.3637695312501	1027.924926757813	-599.5051879882814	-303.3697814941407	1070.334594726563	-679.9337158203126	-203.727279663086	1003.946228027344	-995.600036621094	-216.7429962158204	1004.554443359375	-738.2092895507814	-387.3828735351564	1112.635131835938	-879.7034301757815	-394.9548339843751	1081.740234375	-908.4244384765627	-397.150848388672	1080.715454101563	-851.426696777344	-311.8035888671876	797.715026855469	-1115.373901367188	-275.9174804687501	721.9713134765626	-1133.419067382813	-229.1239624023438	727.3999023437501	-1130.520141601563	-301.6101379394532	666.0332031250001	-1124.238891601563	-287.4314270019532	510.6955871582032	-1133.5	-230.0403594970704	482.307830810547	-1013.339111328125	-226.9227752685547	348.6208190917969	-1134.873779296875	-287.3786926269532	309.8812255859376	-1187.224487304688	-242.1020050048829	306.6548767089844	-1175.632202148438	-235.8735656738282	223.7030334472657	-1159.232055664063	-297.8717041015626	90.69253540039064	-1214.022583007813	-240.0250396728516	97.60247802734378	-1134.983764648438	-345.8636779785157	53.23534011840822	-1142.318481445313	-131.4178009033203	54.06746673583986	-1202.382446289063	-142.1546630859375	59.37519836425783	-1251.08642578125	-207.3672637939454	39.32158279418946	-1283.316528320313	-359.2933349609376	727.9132080078126	-667.5000000000001	-330.0848083496094	669.2351684570314	-654.7906494140626	-296.9456176757813	665.7025146484376	-653.4939575195314	-363.0907592773438	594.3404541015626	-673.3367309570314	-379.0331115722657	501.445526123047	-672.5152587890626	-296.6366882324219	484.6146850585939	-785.2456054687502	-323.8887329101563	400.327850341797	-645.7255859375001	-398.0603637695314	325.8822937011719	-626.9011230468751	-352.1421203613282	321.8757019042969	-618.4619140625001	-327.4936828613282	270.8402709960938	-628.0620117187501	-377.9027404785157	88.49266815185548	-599.1068115234376	-311.9224243164063	101.5202255249024	-667.7449951171876	-410.7859191894532	47.26667022705079	-674.0192260742189	-198.7131805419922	54.99958419799806	-598.1563110351564	-214.9349822998047	58.19823455810548	-552.8803100585939	-276.8638916015626	34.81726074218751	-525.1876220703126	
1387	6.93	34.8570785522461	1611.646606445313	-824.859069824219	-113.5862197875977	1670.383911132813	-920.0275878906252	-145.3898315429688	1688.096313476563	-784.4583740234377	-265.7926025390626	1534.397216796875	-848.7928466796877	-371.4413452148438	1206.66552734375	-878.8564453125002	-143.6898193359375	1435.459228515625	-851.7462158203127	-188.4297637939453	1520.82177734375	-1008.275024414063	-295.5035400390626	1420.585571289063	-1191.678833007813	-263.3549804687501	1380.481689453125	-1200.339111328125	-310.3865356445313	1370.794799804688	-1238.45068359375	-312.5271606445313	1307.73681640625	-1264.055908203125	-389.0516052246095	1296.013305664063	-1219.145751953125	-302.2299499511719	1094.144287109375	-1108.666137695313	-260.6755981445313	1055.163330078125	-1160.399780273438	-250.0752105712891	1093.2861328125	-1066.6845703125	-190.3621063232422	1500.360717773438	-687.8262939453126	-322.9323425292969	1375.926147460938	-529.6859741210939	-303.4124145507813	1330.800415039063	-524.5727539062501	-357.6070251464844	1323.27294921875	-497.6356506347657	-375.0188293457032	1275.623046875	-484.869354248047	-436.5565185546876	1279.968627929688	-545.8748168945314	-370.2608947753907	1062.177001953125	-660.2476196289064	-333.5348815917969	1027.153198242188	-597.8219604492189	-303.4539794921876	1070.135986328125	-678.2166137695314	-204.9718017578126	1003.939758300781	-994.157897949219	-217.1838836669922	1004.709228515625	-736.7337646484376	-388.0821838378907	1112.728637695313	-877.6390380859377	-397.126190185547	1081.955688476563	-906.3359985351565	-397.8963012695314	1080.74951171875	-849.3948364257815	-312.7919616699219	797.8876953125002	-1113.581787109375	-276.7631835937501	722.0826416015626	-1131.960571289063	-229.7151641845704	727.4583129882814	-1128.848999023438	-301.8278503417969	666.0390625000001	-1122.783569335938	-288.2245483398438	510.784637451172	-1132.381225585938	-230.7668762207032	482.1514587402345	-1012.1611328125	-227.5574493408204	348.9312744140626	-1133.97802734375	-287.8241271972657	310.2598571777344	-1186.451538085938	-242.5316619873047	307.1972961425782	-1174.82568359375	-236.078598022461	224.3168029785157	-1158.844482421875	-297.7050781250001	91.14849853515626	-1213.849853515625	-239.8601837158204	97.73392486572268	-1134.775268554688	-345.6909790039063	53.38389587402345	-1142.088500976563	-131.2043609619141	53.9245071411133	-1202.429565429688	-142.0339813232422	59.5139503479004	-1250.967041015625	-207.2166442871094	39.51451110839844	-1283.1611328125	-359.8148193359376	728.0165405273439	-665.7933959960939	-330.8182067871094	669.2716064453126	-653.4848022460939	-297.8098144531251	665.5581665039064	-652.0192260742189	-363.8497314453126	594.4459838867189	-672.1835327148439	-380.2220153808594	501.4284057617189	-671.7697143554689	-298.2589721679688	485.3672485351564	-784.7900390625002	-324.8834838867188	400.4681701660157	-645.2291870117189	-398.7349243164064	325.6427001953126	-626.2443237304689	-352.6325378417969	321.8405761718751	-617.8237915039064	-327.9281311035157	270.9150390625001	-627.7018432617189	-378.0286865234376	88.34645843505861	-598.9046630859376	-312.2243347167969	101.543930053711	-667.4783325195314	-410.8357543945314	47.26347732543946	-673.9200439453126	-198.8157653808594	54.92454910278322	-597.9706420898439	-215.0185089111329	58.10852432250978	-552.7954711914064	-276.9761352539063	34.75793457031251	-525.0283813476564	
1388	6.935	34.98504257202149	1611.228149414063	-823.0019531250002	-114.0296936035157	1670.128295898438	-917.4421386718752	-145.2599182128907	1687.709716796875	-781.5551757812502	-266.1432189941407	1534.3544921875	-845.5777587890627	-372.2343139648438	1206.7734375	-876.7544555664065	-143.9300079345703	1435.143188476563	-849.2491455078127	-189.4902648925782	1521.009643554688	-1005.409606933594	-297.4546203613282	1421.15380859375	-1188.5458984375	-265.6378173828126	1381.009887695313	-1197.314819335938	-312.3743286132813	1371.41943359375	-1235.50341796875	-314.6531372070313	1308.424072265625	-1261.26025390625	-391.0523986816407	1296.60400390625	-1215.984252929688	-303.7712402343751	1094.317016601563	-1106.746704101563	-262.3437500000001	1055.632934570313	-1158.713500976563	-251.7230987548829	1093.388916015625	-1064.91015625	-189.9321899414063	1499.576904296875	-685.7316284179689	-322.1929321289063	1374.767578125	-526.7903442382814	-302.8827819824219	1329.756958007813	-521.7042236328126	-356.7369079589844	1322.061889648438	-494.8171386718751	-374.1501770019532	1274.510375976563	-482.1666259765626	-436.189422607422	1279.068603515625	-542.4963378906251	-370.4031677246094	1061.7197265625	-658.4651489257814	-333.3880920410157	1026.25341796875	-596.5808715820314	-303.9715270996094	1069.801513671875	-676.5016479492189	-206.2662048339844	1004.075866699219	-992.5518798828127	-218.067855834961	1004.51318359375	-735.1541748046876	-388.7036132812501	1112.8212890625	-875.6677246093752	-396.2940368652345	1081.772094726563	-904.3833618164065	-398.8873901367189	1080.884643554688	-847.5572509765627	-313.8396606445313	798.0067138671877	-1112.005859375	-277.8753356933594	722.0840454101564	-1130.326538085938	-230.6655273437501	727.6276245117189	-1127.166259765625	-302.9700622558594	666.1472778320314	-1121.569091796875	-288.8699645996094	511.0000915527345	-1131.341186523438	-231.6205139160157	482.3120117187501	-1011.120056152344	-228.0100860595704	349.1394653320313	-1133.334594726563	-288.3450317382813	310.7552490234376	-1185.7412109375	-242.7234802246094	307.9964294433594	-1174.112548828125	-235.959457397461	225.0979766845704	-1158.357421875	-297.6126403808594	91.54524993896486	-1213.510009765625	-239.6957092285157	97.95404052734378	-1134.62646484375	-345.5002746582032	53.59165573120119	-1141.841064453125	-131.181625366211	53.96229171752931	-1202.360107421875	-141.9087677001953	59.66993331909181	-1250.88671875	-207.1927795410157	39.74469375610352	-1283.003295898438	-360.5981750488282	728.0654296875001	-664.1657104492189	-331.3662109375001	669.1329956054689	-652.3700561523439	-298.3999328613282	665.4905395507814	-650.9986572265626	-365.1303710937501	594.4968872070314	-671.1459350585939	-381.5929870605469	501.444549560547	-670.7529296875001	-299.9978637695313	485.6592407226564	-784.141052246094	-325.7790527343751	400.6325073242189	-644.7395629882814	-399.3211059570314	325.6921691894532	-625.4558715820314	-353.0000915527344	321.8450012207032	-617.3776245117189	-328.3101501464844	270.8652648925782	-627.4326171875001	-378.1555175781251	88.27816009521486	-598.7378540039064	-312.3886718750001	101.5958557128907	-667.2672119140626	-410.8521728515626	47.26024246215821	-673.8651733398439	-198.8691558837891	54.87528610229494	-597.8471679687501	-214.9870758056641	58.06746673583986	-552.6160278320314	-277.1038818359376	34.61687850952149	-524.9057006835939	
